<mxfile host="app.diagrams.net" agent="Mozilla/5.0 (Macintosh; Intel Mac OS X 10_15_7) AppleWebKit/537.36 (KHTML, like Gecko) Chrome/131.0.0.0 Safari/537.36" version="24.9.1">
  <diagram name="第 1 页" id="251uv5qzhBT_Lm49wtqx">
    <mxGraphModel dx="612" dy="382" grid="1" gridSize="10" guides="1" tooltips="1" connect="1" arrows="1" fold="1" page="1" pageScale="1" pageWidth="827" pageHeight="1169" math="0" shadow="0">
      <root>
        <mxCell id="0" />
        <mxCell id="1" parent="0" />
        <mxCell id="h5kKYo-_dhXHsnKXQvqF-1" value="google chrome 插件" style="rounded=1;whiteSpace=wrap;html=1;" vertex="1" parent="1">
          <mxGeometry x="150" y="190" width="140" height="30" as="geometry" />
        </mxCell>
        <mxCell id="h5kKYo-_dhXHsnKXQvqF-4" style="edgeStyle=orthogonalEdgeStyle;rounded=0;orthogonalLoop=1;jettySize=auto;html=1;entryX=1;entryY=0.5;entryDx=0;entryDy=0;endArrow=none;endFill=0;" edge="1" parent="1" source="h5kKYo-_dhXHsnKXQvqF-3" target="h5kKYo-_dhXHsnKXQvqF-1">
          <mxGeometry relative="1" as="geometry" />
        </mxCell>
        <mxCell id="h5kKYo-_dhXHsnKXQvqF-3" value="https://www.youtube.com/watch?v=ty9ZcimL6VE" style="rounded=1;whiteSpace=wrap;html=1;" vertex="1" parent="1">
          <mxGeometry x="340" y="130" width="190" height="30" as="geometry" />
        </mxCell>
      </root>
    </mxGraphModel>
  </diagram>
</mxfile>
